<?xml version="1.0" encoding="utf-8"?>
<svg version="1.1" xmlns:xlink="http://www.w3.org/1999/xlink" width="21px" height="20px" xmlns="http://www.w3.org/2000/svg">
  <g transform="matrix(1 0 0 1 -46 -11 )">
    <path d="M 1.72581818181817 10.3167272727273  L 1.73822727272727 10.3033636363636  C 0.773817478520243 9.17869519918884  0.243678963356331 7.74605494854833  0.243678963356331 6.26451340517545  C 0.243678963356331 2.83783757099803  3.02154858372433 0.0599679506300106  6.44822441790177 0.0599679506300106  C 7.25998392724273 0.0599679506300106  8.06385431639126 0.21926090179457  8.81427272727274 0.528818181818195  L 8.81236363636361 0.528818181818195  L 4.76318181818181 4.5799090909091  L 6.11290909090911 5.92963636363638  L 10.1620909090909 1.88045454545454  C 11.3257024490931 0.716716415859281  12.9039743549101 0.0629244995852503  14.5496590909091 0.0629244995852503  C 17.9763766228142 0.0629244995852503  20.7542800458693 2.84082792264036  20.7542800458693 6.26754545454546  C 20.7542800458693 7.91299630009797  20.1006734362046 9.4910636285573  18.9372272727273 10.6546363636364  L 10.5 19.0909090909091  L 1.72581818181817 10.3167272727273  Z " fill-rule="nonzero" fill="#ffffff" stroke="none" transform="matrix(1 0 0 1 46 11 )" />
  </g>
</svg>