<?xml version="1.0" encoding="utf-8"?>
<svg version="1.1" xmlns:xlink="http://www.w3.org/1999/xlink" width="18px" height="16px" xmlns="http://www.w3.org/2000/svg">
  <g transform="matrix(1 0 0 1 -135 -12 )">
    <path d="M 0 10.672002471448  L 0 5.32800495031776  C 0 5.32681729192635  0 5.32562963330304  0 5.32444197464574  C 0 2.38383387068993  2.38383481660355 0  5.32444408740304 0  C 5.32740744909142 0  5.3303708102631 0  5.33333416782091 0  L 12.444444802082 0  C 15.3893334934953 0  17.7777777777778 2.39556186611804  17.7777777777778 5.32800495031776  L 17.7777777777778 16  L 5.33333416782091 16  C 2.38844547640758 16  0 13.6044455556477  0 10.672002471448  Z M 12.444444802082 7.1111152343143  L 10.6666671435167 7.1111152343143  L 10.6666671435167 8.8888921874514  L 12.444444802082 8.8888921874514  L 12.444444802082 7.1111152343143  Z M 7.11111182638621 7.1111152343143  L 5.33333416782091 7.1111152343143  L 5.33333416782091 8.8888921874514  L 7.11111182638621 8.8888921874514  L 7.11111182638621 7.1111152343143  Z " fill-rule="nonzero" fill="#ffffff" stroke="none" transform="matrix(1 0 0 1 135 12 )" />
  </g>
</svg>