<?xml version="1.0" encoding="utf-8"?>
<svg version="1.1" xmlns:xlink="http://www.w3.org/1999/xlink" width="20px" height="20px" xmlns="http://www.w3.org/2000/svg">
  <g transform="matrix(1 0 0 1 -221 -10 )">
    <path d="M 15.2380952380952 20  L 0 20  C 0 15.7921161917654  3.41116381081298 12.3809523809524  7.61904761904759 12.3809523809524  C 11.8269314272823 12.3809523809524  15.2380952380952 15.7921161917654  15.2380952380952 20  Z M 13.3333333333333 5.71428571428572  C 13.3333333333333 8.87142857142857  10.7761904761905 11.4285714285714  7.61904761904759 11.4285714285714  C 4.46190476190475 11.4285714285714  1.90476190476193 8.87142857142857  1.90476190476193 5.71428571428572  C 1.90476190476193 2.55714285714285  4.46190476190475 0  7.61904761904759 0  C 10.7761904761905 0  13.3333333333333 2.55714285714285  13.3333333333333 5.71428571428572  Z M 17.1428571428572 20  C 17.1428571428572 17.5142857142857  16.1904761904762 15.2514285714286  14.6314285714286 13.5552380952381  C 17.6194726843726 14.3232221517632  19.7775471741984 16.9217435170036  19.9838095238095 20  L 17.1428571428572 20  Z M 13.334286055848 11.4294224674879  C 13.1237511945017 11.4294224674879  12.9134481701757 11.4154573390486  12.7047619047619 11.387619047619  C 14.318967028689 9.94383260231896  15.2405525501358 7.87996607928937  15.2380952380952 5.71428571428572  C 15.2401203516125 4.4128239283198  14.9072250927765 3.13273506601729  14.2714285714285 1.99714285714285  C 16.4956187574754 2.44406642195366  18.095683902115 4.39801895101175  18.0952380952381 6.66666666666666  C 18.0952383229463 6.6672678065998  18.0952384368003 6.66786894655931  18.0952384368003 6.66847008653554  C 18.0952384368003 9.29787148120616  15.9636874505186 11.4294224674879  13.334286055848 11.4294224674879  Z " fill-rule="nonzero" fill="#ffffff" stroke="none" transform="matrix(1 0 0 1 221 10 )" />
  </g>
</svg>